<?xml version="1.0" encoding="UTF-8"?>
<svg xmlns="http://www.w3.org/2000/svg" id="Outline" viewBox="0 0 512 512" width="512" height="512"><path d="M88,136A40,40,0,1,0,48,96,40.045,40.045,0,0,0,88,136Zm0-64A24,24,0,1,1,64,96,24.028,24.028,0,0,1,88,72Z"/><path d="M152,72H312a8,8,0,0,0,0-16H152a8,8,0,0,0,0,16Z"/><path d="M152,104H312a8,8,0,0,0,0-16H152a8,8,0,0,0,0,16Z"/><path d="M152,136H312a8,8,0,0,0,0-16H152a8,8,0,0,0,0,16Z"/><path d="M224,248H64a8,8,0,0,0,0,16H224a8,8,0,0,0,0-16Z"/><path d="M312,152H64a8,8,0,0,0,0,16H312a8,8,0,0,0,0-16Z"/><path d="M312,184H64a8,8,0,0,0,0,16H312a8,8,0,0,0,0-16Z"/><path d="M312,216H64a8,8,0,0,0,0,16H312a8,8,0,0,0,0-16Z"/><path d="M200,280H64a8,8,0,0,0-8,8V400a8,8,0,0,0,8,8H200a8,8,0,0,0,8-8V288A8,8,0,0,0,200,280Zm-8,112H72V296H192Z"/><path d="M368,304a56,56,0,1,0,56,56A56.063,56.063,0,0,0,368,304Zm-40,56a39.962,39.962,0,0,1,16-31.978v63.956A39.962,39.962,0,0,1,328,360ZM360,399.2v-78.39a40.154,40.154,0,0,1,16,0V399.2a40.154,40.154,0,0,1-16,0Zm32-7.217V328.022a39.956,39.956,0,0,1,0,63.956Z"/><path d="M496,344a8,8,0,0,0-8-8H470.557a109.193,109.193,0,0,0-12.336-30.907l19.436-19.436a8,8,0,0,0,0-11.314l-24-24a8,8,0,0,0-11.314,0l-19.436,19.436A109.193,109.193,0,0,0,392,257.443V64a8,8,0,0,0-8-8H360V24a8,8,0,0,0-8-8H24a8,8,0,0,0-8,8V432a8,8,0,0,0,8,8H56v32a8,8,0,0,0,8,8H344v8a8,8,0,0,0,8,8h32a8,8,0,0,0,8-8V462.557a109.193,109.193,0,0,0,30.907-12.336l19.436,19.436a8,8,0,0,0,11.314,0l24-24a8,8,0,0,0,0-11.314l-19.436-19.436A109.193,109.193,0,0,0,470.557,384H488a8,8,0,0,0,8-8ZM376,72V224H360V72ZM32,32H344V257.443a109.193,109.193,0,0,0-30.907,12.336l-19.436-19.436a8,8,0,0,0-11.314,0l-24,24a8,8,0,0,0,0,11.314l19.436,19.436A109.193,109.193,0,0,0,265.443,336H248a8,8,0,0,0-8,8v32a8,8,0,0,0,8,8h17.443a109.193,109.193,0,0,0,12.336,30.907L268.686,424H32ZM72,440H256a7.976,7.976,0,0,0,2.343,5.657L276.686,464H72Zm227.314,24,13.779-13.779A109.193,109.193,0,0,0,344,462.557V464ZM480,368H464a8,8,0,0,0-7.891,6.683,93,93,0,0,1-14.667,36.735,8,8,0,0,0,.9,10.239L460.687,440,448,452.687l-18.343-18.344a8,8,0,0,0-10.239-.9,93,93,0,0,1-36.735,14.667A8,8,0,0,0,376,456v24H360V456a8,8,0,0,0-6.683-7.891,93,93,0,0,1-36.735-14.667,8,8,0,0,0-10.239.9L288,452.687,275.313,440l18.344-18.343a8,8,0,0,0,.9-10.239,93,93,0,0,1-14.667-36.735A8,8,0,0,0,272,368H256V352h16a8,8,0,0,0,7.891-6.683,93,93,0,0,1,14.667-36.735,8,8,0,0,0-.9-10.239L275.313,280,288,267.313l18.343,18.344a8,8,0,0,0,10.239.9,93,93,0,0,1,36.735-14.667A8,8,0,0,0,360,264V240h16v24a8,8,0,0,0,6.683,7.891,93,93,0,0,1,36.735,14.667,8,8,0,0,0,10.239-.9L448,267.313,460.687,280l-18.344,18.343a8,8,0,0,0-.9,10.239,93,93,0,0,1,14.667,36.735A8,8,0,0,0,464,352h16Z"/></svg>
