<svg xmlns="http://www.w3.org/2000/svg" id="Outline" viewBox="0 0 512 512" width="512" height="512" fill="currentColor" stroke="currentColor"><path d="M144,224h64a8,8,0,0,0,8-8V155.314l13.657-13.657a8,8,0,0,0-11.314-11.314L204.686,144H144a8,8,0,0,0-8,8v64A8,8,0,0,0,144,224Zm56-16H152V171.314l18.343,18.343a8,8,0,0,0,11.314,0L200,171.314Zm-24-35.313L163.314,160h25.372Z"/><path d="M240,208H376a8,8,0,0,0,0-16H240a8,8,0,0,0,0,16Z"/><path d="M376,240H136a8,8,0,0,0,0,16H376a8,8,0,0,0,0-16Z"/><path d="M376,272H136a8,8,0,0,0,0,16H376a8,8,0,0,0,0-16Z"/><path d="M376,304H136a8,8,0,0,0,0,16H376a8,8,0,0,0,0-16Z"/><path d="M376,352H345.889l-14.311-7.155a8,8,0,0,0-9.235,1.5L320,348.687l-10.343-10.344a8,8,0,0,0-11.314,0l-16,16a8,8,0,0,0,11.314,11.314L304,355.313l10.343,10.344a8,8,0,0,0,11.314,0l3.923-3.923,10.842,5.421A7.994,7.994,0,0,0,344,368h32a8,8,0,0,0,0-16Z"/><path d="M496,16H448a8,8,0,0,0-8,8v9.061l-47.637,6.806L257.833,8.213a8,8,0,0,0-4.705.32L66.628,80.264a30.73,30.73,0,0,0,18.789,58.417L88,138.007V343.988l-16-.011V336a8,8,0,0,0-8-8H16a8,8,0,0,0-8,8V480a8,8,0,0,0,8,8H64a8,8,0,0,0,8-8v-9.062l47.637-6.805,134.53,31.654a8,8,0,0,0,4.705-.32l186.5-71.731a30.73,30.73,0,0,0-18.788-58.417l-2.584.674V160.012l16,.011V168a8,8,0,0,0,8,8h48a8,8,0,0,0,8-8V24A8,8,0,0,0,496,16ZM56,472H24V344H56Zm374.623-91.2a14.73,14.73,0,0,1,9,28l-184.2,70.844-133.6-31.434a7.973,7.973,0,0,0-2.964-.133L72,454.776v-94.8l31.994.023c.135-.012.286,0,.429-.011l137.116-7.256a10.106,10.106,0,0,1,2.956,19.9L166.06,392.239a8,8,0,0,0,3.88,15.522l31.952-7.988,59.137,23.655a8,8,0,0,0,4.991.313ZM264.527,407.6,228.4,393.146l19.972-4.994a26.106,26.106,0,0,0-7.659-51.4L104,343.989V133.833L247.473,96.405,283.6,110.854l-19.973,4.994a26.1,26.1,0,0,0,6.351,51.43c.434,0,.871-.01,1.308-.032L408,160.011V370.167Zm143.05-263.584-137.116,7.256a10.106,10.106,0,0,1-2.956-19.9l78.435-19.608a8,8,0,0,0-3.88-15.522l-31.953,7.988L250.971,80.572a7.991,7.991,0,0,0-4.991-.313L81.377,123.2a14.73,14.73,0,0,1-9.006-28l184.2-70.844,133.6,31.434a8.014,8.014,0,0,0,2.964.133L440,49.225v94.8S407.721,144,407.577,144.011ZM488,160H456V32h32Z"/></svg>
