<svg xmlns="http://www.w3.org/2000/svg" id="Outline" viewBox="0 0 512 512" width="512" height="512" fill="currentColor" stroke="currentColor"><path d="M488,136H456a8,8,0,0,0,0,16h14.37l-41.454,47.376-21.287-3.548a23.984,23.984,0,0,0-7.629-13.7V8a8,8,0,0,0-8-8H328a8,8,0,0,0-8,8V196.05A127.034,127.034,0,0,0,304,193V48a8,8,0,0,0-8-8H232a8,8,0,0,0-8,8V209.183a128.544,128.544,0,0,0-16,10.976V112a8,8,0,0,0-8-8H136a8,8,0,0,0-8,8V304a23.9,23.9,0,0,0-16,6.131V168a8,8,0,0,0-8-8H40a8,8,0,0,0-8,8V352.684l-14.315,18.4a8,8,0,1,0,12.63,9.822l51.973-66.822,21.9,10.95a24,24,0,1,0,46.474-4.924l9.565-7.652c-.146,2.5-.228,5.006-.228,7.537A127.939,127.939,0,0,0,359.9,425.843l79.129,79.128a24,24,0,1,0,33.94-33.942L393.843,391.9A127.794,127.794,0,0,0,371.9,223.412l1.758-1.757A23.98,23.98,0,0,0,405,211.61l25.689,4.282A8.119,8.119,0,0,0,432,216a8,8,0,0,0,6.021-2.732L480,165.291V176a8,8,0,0,0,16,0V144A8,8,0,0,0,488,136ZM240,56h48V192a127.3,127.3,0,0,0-48,9.348ZM73.685,299.089,48,332.112V176H96V303.056l-12.422-6.211A8,8,0,0,0,73.685,299.089ZM128,336a8,8,0,1,1,8-8A8.009,8.009,0,0,1,128,336Zm16-31.044V120h48V235.436a127.814,127.814,0,0,0-28.23,53.7ZM461.657,482.344a8,8,0,1,1-11.314,11.312l-77.714-77.714a129.039,129.039,0,0,0,11.313-11.313ZM400,320A112,112,0,1,1,288,208,112.127,112.127,0,0,1,400,320ZM336,201.348V16h48V176a24,24,0,0,0-21.655,34.341l-3.263,3.263A127.856,127.856,0,0,0,336,201.348ZM384,208a8,8,0,1,1,8-8A8.009,8.009,0,0,1,384,208Z"/><path d="M288,224a96,96,0,1,0,96,96A96.108,96.108,0,0,0,288,224Zm0,176a80,80,0,1,1,80-80A80.091,80.091,0,0,1,288,400Z"/><path d="M288,368a48.054,48.054,0,0,1-48-48,8,8,0,0,0-16,0,64.072,64.072,0,0,0,64,64,8,8,0,0,0,0-16Z"/></svg>
