<svg xmlns="http://www.w3.org/2000/svg" id="Outline" viewBox="0 0 512 512" width="512" height="512" fill="currentColor" stroke="currentColor">
  <path d="M448 64H64C28.7 64 0 92.7 0 128v256c0 35.3 28.7 64 64 64h384c35.3 0 64-28.7 64-64V128c0-35.3-28.7-64-64-64zM64 96h384c17.7 0 32 14.3 32 32v32H32v-32c0-17.7 14.3-32 32-32zM448 416H64c-17.7 0-32-14.3-32-32V192h448v192c0 17.7-14.3 32-32 32z"/>
  <path d="M80 240h352c8.8 0 16-7.2 16-16s-7.2-16-16-16H80c-8.8 0-16 7.2-16 16s7.2 16 16 16z"/>
  <path d="M80 304h352c8.8 0 16-7.2 16-16s-7.2-16-16-16H80c-8.8 0-16 7.2-16 16s7.2 16 16 16z"/>
  <path d="M80 368h224c8.8 0 16-7.2 16-16s-7.2-16-16-16H80c-8.8 0-16 7.2-16 16s7.2 16 16 16z"/>
  <path d="M128 112h256c8.8 0 16-7.2 16-16s-7.2-16-16-16H128c-8.8 0-16 7.2-16 16s7.2 16 16 16z"/>
  <path d="M256 400c-8.8 0-16 7.2-16 16v16c0 8.8 7.2 16 16 16s16-7.2 16-16v-16c0-8.8-7.2-16-16-16z"/>
  <path d="M320 400c-8.8 0-16 7.2-16 16v16c0 8.8 7.2 16 16 16s16-7.2 16-16v-16c0-8.8-7.2-16-16-16z"/>
  <path d="M192 400c-8.8 0-16 7.2-16 16v16c0 8.8 7.2 16 16 16s16-7.2 16-16v-16c0-8.8-7.2-16-16-16z"/>
  <path d="M64 112c0-8.8 7.2-16 16-16h32c8.8 0 16 7.2 16 16s-7.2 16-16 16H80c-8.8 0-16-7.2-16-16z"/>
  <path d="M384 112c0-8.8 7.2-16 16-16h32c8.8 0 16 7.2 16 16s-7.2 16-16 16h-32c-8.8 0-16-7.2-16-16z"/>
  <path d="M64 80c0-8.8 7.2-16 16-16h32c8.8 0 16 7.2 16 16s-7.2 16-16 16H80c-8.8 0-16-7.2-16-16z"/>
  <path d="M384 80c0-8.8 7.2-16 16-16h32c8.8 0 16 7.2 16 16s-7.2 16-16 16h-32c-8.8 0-16-7.2-16-16z"/>
</svg>
