<svg id="Outline" height="512" viewBox="0 0 512 512" width="512" xmlns="http://www.w3.org/2000/svg" fill="currentColor" stroke="currentColor"><path d="m120 312a8 8 0 0 0 8-8v-128a8 8 0 0 0 -8-8h-32a8 8 0 0 0 -8 8v128a8 8 0 0 0 8 8zm-24-128h16v112h-16z"/><path d="m56 312a8 8 0 0 0 8-8v-104a8 8 0 0 0 -8-8h-32a8 8 0 0 0 -8 8v104a8 8 0 0 0 8 8zm-24-104h16v88h-16z"/><path d="m184 144h-32a8 8 0 0 0 -8 8v152a8 8 0 0 0 8 8h32a8 8 0 0 0 8-8v-152a8 8 0 0 0 -8-8zm-8 152h-16v-136h16z"/><path d="m488 128h-272a8 8 0 0 0 -8 8v352a8 8 0 0 0 8 8h272a8 8 0 0 0 8-8v-352a8 8 0 0 0 -8-8zm-8 16v112h-256v-112zm-256 336v-208h256v208z"/><path d="m248 240h208a8 8 0 0 0 8-8v-64a8 8 0 0 0 -8-8h-208a8 8 0 0 0 -8 8v64a8 8 0 0 0 8 8zm8-64h192v48h-192z"/><path d="m448 288h-192a8 8 0 0 0 -8 8v160a8 8 0 0 0 8 8h192a8 8 0 0 0 8-8v-160a8 8 0 0 0 -8-8zm-56 80h-32v-24h32zm-48 0h-32v-24h32zm-48 0h-32v-24h32zm-32 16h32v24h-32zm48 0h32v24h-32zm48 0h32v24h-32zm48-8v-32h32v64h-32zm32-48h-32v-24h32zm-48 0h-32v-24h32zm-48 0h-32v-24h32zm-80-24h32v24h-32zm0 120h32v24h-32zm48 0h32v24h-32zm48 0h32v24h-32zm80 24h-32v-24h32z"/><circle cx="280" cy="200" r="8"/><path d="m120 368a63.8 63.8 0 0 0 -20.04 3.2 64 64 0 1 0 0 121.592 64.006 64.006 0 1 0 20.04-124.792zm-88 64a48 48 0 1 1 48 48 48.053 48.053 0 0 1 -48-48zm90.333 47.941a63.871 63.871 0 0 0 0-95.882 48 48 0 0 1 0 95.882z"/><circle cx="312" cy="200" r="8"/><path d="m96 416a8 8 0 0 0 -8-8 8 8 0 0 0 -16 0v2.165a15.986 15.986 0 0 0 8 29.835h-8a8 8 0 0 0 0 16 8 8 0 0 0 16 0v-2.165a15.986 15.986 0 0 0 -8-29.835h8a8 8 0 0 0 8-8z"/><path d="m248 16h-24a8 8 0 0 0 0 16h7.355l-19.2 24h-13.531a24 24 0 1 0 -44.279 18.34l-16 16a23.989 23.989 0 0 0 -32.969 13.66h-26.752a24 24 0 1 0 -44.279 18.34l-16 16a8 8 0 0 0 11.314 11.314l16-16a23.989 23.989 0 0 0 32.965-13.654h26.752a24 24 0 1 0 44.279-18.34l16-16a23.989 23.989 0 0 0 32.969-13.66h17.376a8 8 0 0 0 6.247-3l17.753-22.194v1.194a8 8 0 0 0 16 0v-24a8 8 0 0 0 -8-8zm-192 104a8 8 0 1 1 8-8 8.009 8.009 0 0 1 -8 8zm72 0a8 8 0 1 1 8-8 8.009 8.009 0 0 1 -8 8zm48-48a8 8 0 1 1 8-8 8.009 8.009 0 0 1 -8 8z"/></svg>
