<svg id="Icons" height="512" viewBox="0 0 74 74" width="512" xmlns="http://www.w3.org/2000/svg" fill="currentColor" stroke="currentColor"><path d="m39.19 72.67h-2.97a1 1 0 0 1 0-2h2.97a1 1 0 0 1 0 2z"/><path d="m69 72.67h-22.81a1 1 0 0 1 0-2h22.81a1 1 0 0 0 1-1v-45.27h-66v45.27a1 1 0 0 0 1 1h14.32a1 1 0 1 1 0 2h-14.32a3 3 0 0 1 -3-3v-46.27a1 1 0 0 1 1-1h68a1 1 0 0 1 1 1v46.27a3 3 0 0 1 -3 3z"/><path d="m29.22 72.67h-2.9a1 1 0 0 1 0-2h2.9a1 1 0 0 1 0 2z"/><path d="m71 24.4h-68a1 1 0 0 1 -1-1v-12a3 3 0 0 1 3-3h9.77a1 1 0 0 1 0 2h-9.77a1 1 0 0 0 -1 1v11h66v-11a1 1 0 0 0 -1-1h-9.77a1 1 0 0 1 0-2h9.77a3 3 0 0 1 3 3v12a1 1 0 0 1 -1 1z"/><path d="m52.49 10.4h-30.98a1 1 0 0 1 0-2h30.98a1 1 0 0 1 0 2z"/><path d="m58.315 16.129h-4.907a1.92 1.92 0 0 1 -1.917-1.917v-9.625a1.92 1.92 0 0 1 1.917-1.917h4.907a1.919 1.919 0 0 1 1.917 1.917v9.625a1.919 1.919 0 0 1 -1.917 1.917zm-4.824-2h4.741v-9.459h-4.741z"/><path d="m20.592 16.129h-4.907a1.919 1.919 0 0 1 -1.917-1.917v-9.625a1.919 1.919 0 0 1 1.917-1.917h4.907a1.92 1.92 0 0 1 1.917 1.917v9.625a1.92 1.92 0 0 1 -1.917 1.917zm-4.824-2h4.741v-9.459h-4.741z"/><path d="m32.365 39.234h-5.692a1.713 1.713 0 0 1 -1.711-1.711v-5.692a1.712 1.712 0 0 1 1.711-1.711h5.692a1.712 1.712 0 0 1 1.711 1.711v5.692a1.713 1.713 0 0 1 -1.711 1.711zm-5.4-2h5.114v-5.114h-5.117z"/><path d="m47.327 39.234h-5.692a1.713 1.713 0 0 1 -1.711-1.711v-5.692a1.712 1.712 0 0 1 1.711-1.711h5.692a1.712 1.712 0 0 1 1.711 1.711v5.692a1.713 1.713 0 0 1 -1.711 1.711zm-5.4-2h5.114v-5.114h-5.117z"/><path d="m62.289 39.234h-5.689a1.713 1.713 0 0 1 -1.711-1.711v-5.692a1.712 1.712 0 0 1 1.711-1.711h5.692a1.713 1.713 0 0 1 1.708 1.711v5.692a1.714 1.714 0 0 1 -1.711 1.711zm-5.4-2h5.111v-5.114h-5.114z"/><path d="m17.4 52.224h-5.689a1.714 1.714 0 0 1 -1.711-1.711v-5.692a1.714 1.714 0 0 1 1.711-1.712h5.689a1.713 1.713 0 0 1 1.711 1.712v5.692a1.713 1.713 0 0 1 -1.711 1.711zm-5.4-2h5.114v-5.115h-5.114z"/><path d="m32.365 52.224h-5.692a1.713 1.713 0 0 1 -1.711-1.711v-5.692a1.713 1.713 0 0 1 1.711-1.712h5.692a1.713 1.713 0 0 1 1.711 1.712v5.692a1.713 1.713 0 0 1 -1.711 1.711zm-5.4-2h5.114v-5.115h-5.117z"/><path d="m47.327 52.224h-5.692a1.713 1.713 0 0 1 -1.711-1.711v-5.692a1.713 1.713 0 0 1 1.711-1.712h5.692a1.713 1.713 0 0 1 1.711 1.712v5.692a1.713 1.713 0 0 1 -1.711 1.711zm-5.4-2h5.114v-5.115h-5.117z"/><path d="m62.289 52.224h-5.689a1.713 1.713 0 0 1 -1.711-1.711v-5.692a1.714 1.714 0 0 1 1.711-1.712h5.692a1.714 1.714 0 0 1 1.708 1.712v5.692a1.714 1.714 0 0 1 -1.711 1.711zm-5.4-2h5.111v-5.115h-5.114z"/><path d="m17.4 65.214h-5.689a1.714 1.714 0 0 1 -1.711-1.714v-5.689a1.713 1.713 0 0 1 1.711-1.711h5.689a1.712 1.712 0 0 1 1.711 1.711v5.689a1.713 1.713 0 0 1 -1.711 1.714zm-5.4-2h5.114v-5.114h-5.114z"/><path d="m32.365 65.214h-5.692a1.713 1.713 0 0 1 -1.711-1.714v-5.689a1.712 1.712 0 0 1 1.711-1.711h5.692a1.712 1.712 0 0 1 1.711 1.711v5.689a1.713 1.713 0 0 1 -1.711 1.714zm-5.4-2h5.114v-5.114h-5.117z"/><path d="m47.327 65.214h-5.692a1.713 1.713 0 0 1 -1.711-1.714v-5.689a1.712 1.712 0 0 1 1.711-1.711h5.692a1.712 1.712 0 0 1 1.711 1.711v5.689a1.713 1.713 0 0 1 -1.711 1.714zm-5.4-2h5.114v-5.114h-5.117z"/></svg>
