<svg xmlns="http://www.w3.org/2000/svg" id="Outline" viewBox="0 0 512 512" width="512" height="512" fill="currentColor" stroke="currentColor">
  <path d="M128 0c-17.7 0-32 14.3-32 32v32H64C28.7 64 0 92.7 0 128v320c0 35.3 28.7 64 64 64h384c35.3 0 64-28.7 64-64V128c0-35.3-28.7-64-64-64h-32V32c0-17.7-14.3-32-32-32s-32 14.3-32 32v32H192V32c0-17.7-14.3-32-32-32zM64 128h384v320H64V128z"/>
  <path d="M96 192h32v32H96V192z"/>
  <path d="M160 192h32v32h-32V192z"/>
  <path d="M224 192h32v32h-32V192z"/>
  <path d="M288 192h32v32h-32V192z"/>
  <path d="M352 192h32v32h-32V192z"/>
  <path d="M96 256h32v32H96V256z"/>
  <path d="M160 256h32v32h-32V256z"/>
  <path d="M224 256h32v32h-32V256z"/>
  <path d="M288 256h32v32h-32V256z"/>
  <path d="M352 256h32v32h-32V256z"/>
  <path d="M96 320h32v32H96V320z"/>
  <path d="M160 320h32v32h-32V320z"/>
  <path d="M224 320h32v32h-32V320z"/>
  <path d="M288 320h32v32h-32V320z"/>
  <path d="M352 320h32v32h-32V320z"/>
  <path d="M96 384h32v32H96V384z"/>
  <path d="M160 384h32v32h-32V384z"/>
  <path d="M224 384h32v32h-32V384z"/>
  <path d="M288 384h32v32h-32V384z"/>
  <path d="M352 384h32v32h-32V384z"/>
</svg>
