<svg xmlns="http://www.w3.org/2000/svg" id="Outline" viewBox="0 0 512 512" width="512" height="512" fill="currentColor" stroke="currentColor">
  <path d="M32 32c0-17.7 14.3-32 32-32s32 14.3 32 32v400c0 17.7-14.3 32-32 32s-32-14.3-32-32V32z"/>
  <path d="M96 96c0-17.7 14.3-32 32-32s32 14.3 32 32v336c0 17.7-14.3 32-32 32s-32-14.3-32-32V96z"/>
  <path d="M160 160c0-17.7 14.3-32 32-32s32 14.3 32 32v272c0 17.7-14.3 32-32 32s-32-14.3-32-32V160z"/>
  <path d="M224 128c0-17.7 14.3-32 32-32s32 14.3 32 32v304c0 17.7-14.3 32-32 32s-32-14.3-32-32V128z"/>
  <path d="M288 192c0-17.7 14.3-32 32-32s32 14.3 32 32v240c0 17.7-14.3 32-32 32s-32-14.3-32-32V192z"/>
  <path d="M352 224c0-17.7 14.3-32 32-32s32 14.3 32 32v208c0 17.7-14.3 32-32 32s-32-14.3-32-32V224z"/>
  <path d="M416 256c0-17.7 14.3-32 32-32s32 14.3 32 32v176c0 17.7-14.3 32-32 32s-32-14.3-32-32V256z"/>
  <path d="M64 448c0-8.8 7.2-16 16-16h352c8.8 0 16 7.2 16 16s-7.2 16-16 16H80c-8.8 0-16-7.2-16-16z"/>
  <path d="M32 448c0-8.8 7.2-16 16-16h16c8.8 0 16 7.2 16 16s-7.2 16-16 16H48c-8.8 0-16-7.2-16-16z"/>
  <path d="M448 448c0-8.8 7.2-16 16-16h16c8.8 0 16 7.2 16 16s-7.2 16-16 16h-16c-8.8 0-16-7.2-16-16z"/>
  <path d="M128 64c0-8.8 7.2-16 16-16h224c8.8 0 16 7.2 16 16s-7.2 16-16 16H144c-8.8 0-16-7.2-16-16z"/>
  <path d="M128 128c0-8.8 7.2-16 16-16h160c8.8 0 16 7.2 16 16s-7.2 16-16 16H144c-8.8 0-16-7.2-16-16z"/>
  <path d="M128 192c0-8.8 7.2-16 16-16h96c8.8 0 16 7.2 16 16s-7.2 16-16 16H144c-8.8 0-16-7.2-16-16z"/>
  <path d="M128 256c0-8.8 7.2-16 16-16h32c8.8 0 16 7.2 16 16s-7.2 16-16 16H144c-8.8 0-16-7.2-16-16z"/>
</svg>
