<svg xmlns="http://www.w3.org/2000/svg" id="Outline" viewBox="0 0 512 512" width="512" height="512" fill="currentColor" stroke="currentColor">
  <path d="M64 0C28.7 0 0 28.7 0 64v384c0 35.3 28.7 64 64 64h384c35.3 0 64-28.7 64-64V64c0-35.3-28.7-64-64-64H64zM448 64v384H64V64h384z"/>
  <path d="M96 128c0-17.7 14.3-32 32-32h256c17.7 0 32 14.3 32 32s-14.3 32-32 32H128c-17.7 0-32-14.3-32-32z"/>
  <path d="M96 224c0-17.7 14.3-32 32-32h256c17.7 0 32 14.3 32 32s-14.3 32-32 32H128c-17.7 0-32-14.3-32-32z"/>
  <path d="M96 320c0-17.7 14.3-32 32-32h256c17.7 0 32 14.3 32 32s-14.3 32-32 32H128c-17.7 0-32-14.3-32-32z"/>
  <path d="M96 416c0-17.7 14.3-32 32-32h160c17.7 0 32 14.3 32 32s-14.3 32-32 32H128c-17.7 0-32-14.3-32-32z"/>
  <path d="M64 80c0-8.8 7.2-16 16-16h32c8.8 0 16 7.2 16 16s-7.2 16-16 16H80c-8.8 0-16-7.2-16-16z"/>
  <path d="M64 176c0-8.8 7.2-16 16-16h32c8.8 0 16 7.2 16 16s-7.2 16-16 16H80c-8.8 0-16-7.2-16-16z"/>
  <path d="M64 272c0-8.8 7.2-16 16-16h32c8.8 0 16 7.2 16 16s-7.2 16-16 16H80c-8.8 0-16-7.2-16-16z"/>
  <path d="M64 368c0-8.8 7.2-16 16-16h32c8.8 0 16 7.2 16 16s-7.2 16-16 16H80c-8.8 0-16-7.2-16-16z"/>
  <path d="M192 80c0-8.8 7.2-16 16-16h224c8.8 0 16 7.2 16 16s-7.2 16-16 16H208c-8.8 0-16-7.2-16-16z"/>
  <path d="M192 176c0-8.8 7.2-16 16-16h224c8.8 0 16 7.2 16 16s-7.2 16-16 16H208c-8.8 0-16-7.2-16-16z"/>
  <path d="M192 272c0-8.8 7.2-16 16-16h224c8.8 0 16 7.2 16 16s-7.2 16-16 16H208c-8.8 0-16-7.2-16-16z"/>
  <path d="M192 368c0-8.8 7.2-16 16-16h160c8.8 0 16 7.2 16 16s-7.2 16-16 16H208c-8.8 0-16-7.2-16-16z"/>
  <path d="M320 32c0-8.8 7.2-16 16-16h96c8.8 0 16 7.2 16 16s-7.2 16-16 16h-96c-8.8 0-16-7.2-16-16z"/>
  <path d="M320 448c0-8.8 7.2-16 16-16h96c8.8 0 16 7.2 16 16s-7.2 16-16 16h-96c-8.8 0-16-7.2-16-16z"/>
  <path d="M64 32c0-8.8 7.2-16 16-16h32c8.8 0 16 7.2 16 16s-7.2 16-16 16H80c-8.8 0-16-7.2-16-16z"/>
  <path d="M64 448c0-8.8 7.2-16 16-16h32c8.8 0 16 7.2 16 16s-7.2 16-16 16H80c-8.8 0-16-7.2-16-16z"/>
  <path d="M192 32c0-8.8 7.2-16 16-16h96c8.8 0 16 7.2 16 16s-7.2 16-16 16H208c-8.8 0-16-7.2-16-16z"/>
  <path d="M192 448c0-8.8 7.2-16 16-16h96c8.8 0 16 7.2 16 16s-7.2 16-16 16H208c-8.8 0-16-7.2-16-16z"/>
</svg>
