<svg xmlns="http://www.w3.org/2000/svg" id="Outline" viewBox="0 0 512 512" width="512" height="512" fill="currentColor" stroke="currentColor">
  <path d="M64 0C28.7 0 0 28.7 0 64v384c0 35.3 28.7 64 64 64h384c35.3 0 64-28.7 64-64V64c0-35.3-28.7-64-64-64H64zM448 64v384H64V64h384z"/>
  <path d="M96 96c0-17.7 14.3-32 32-32h96c17.7 0 32 14.3 32 32v96c0 17.7-14.3 32-32 32H128c-17.7 0-32-14.3-32-32V96z"/>
  <path d="M256 96c0-17.7 14.3-32 32-32h96c17.7 0 32 14.3 32 32v96c0 17.7-14.3 32-32 32H288c-17.7 0-32-14.3-32-32V96z"/>
  <path d="M96 256c0-17.7 14.3-32 32-32h96c17.7 0 32 14.3 32 32v96c0 17.7-14.3 32-32 32H128c-17.7 0-32-14.3-32-32V256z"/>
  <path d="M256 256c0-17.7 14.3-32 32-32h96c17.7 0 32 14.3 32 32v96c0 17.7-14.3 32-32 32H288c-17.7 0-32-14.3-32-32V256z"/>
  <path d="M128 128h64v32h-64V128z"/>
  <path d="M288 128h64v32h-64V128z"/>
  <path d="M128 288h64v32h-64V288z"/>
  <path d="M288 288h64v32h-64V288z"/>
  <path d="M96 64c0-8.8 7.2-16 16-16h32c8.8 0 16 7.2 16 16s-7.2 16-16 16H112c-8.8 0-16-7.2-16-16z"/>
  <path d="M256 64c0-8.8 7.2-16 16-16h32c8.8 0 16 7.2 16 16s-7.2 16-16 16H272c-8.8 0-16-7.2-16-16z"/>
  <path d="M96 224c0-8.8 7.2-16 16-16h32c8.8 0 16 7.2 16 16s-7.2 16-16 16H112c-8.8 0-16-7.2-16-16z"/>
  <path d="M256 224c0-8.8 7.2-16 16-16h32c8.8 0 16 7.2 16 16s-7.2 16-16 16H272c-8.8 0-16-7.2-16-16z"/>
  <path d="M64 32c0-8.8 7.2-16 16-16h352c8.8 0 16 7.2 16 16s-7.2 16-16 16H80c-8.8 0-16-7.2-16-16z"/>
  <path d="M64 448c0-8.8 7.2-16 16-16h352c8.8 0 16 7.2 16 16s-7.2 16-16 16H80c-8.8 0-16-7.2-16-16z"/>
  <path d="M32 64c0-8.8 7.2-16 16-16h16c8.8 0 16 7.2 16 16s-7.2 16-16 16H48c-8.8 0-16-7.2-16-16z"/>
  <path d="M32 416c0-8.8 7.2-16 16-16h16c8.8 0 16 7.2 16 16s-7.2 16-16 16H48c-8.8 0-16-7.2-16-16z"/>
  <path d="M448 64c0-8.8 7.2-16 16-16h16c8.8 0 16 7.2 16 16s-7.2 16-16 16h-16c-8.8 0-16-7.2-16-16z"/>
  <path d="M448 416c0-8.8 7.2-16 16-16h16c8.8 0 16 7.2 16 16s-7.2 16-16 16h-16c-8.8 0-16-7.2-16-16z"/>
</svg>
