<svg xmlns="http://www.w3.org/2000/svg" id="Outline" viewBox="0 0 512 512" width="512" height="512" fill="currentColor" stroke="currentColor">
  <path d="M64 160c0-17.7 14.3-32 32-32h320c17.7 0 32 14.3 32 32s-14.3 32-32 32H96c-17.7 0-32-14.3-32-32z"/>
  <path d="M112 64c0-17.7 14.3-32 32-32h224c17.7 0 32 14.3 32 32v32H112V64z"/>
  <path d="M80 224c0-17.7 14.3-32 32-32h288c17.7 0 32 14.3 32 32v224c0 17.7-14.3 32-32 32H112c-17.7 0-32-14.3-32-32V224z"/>
  <path d="M176 288c0-8.8 7.2-16 16-16s16 7.2 16 16v128c0 8.8-7.2 16-16 16s-16-7.2-16-16V288z"/>
  <path d="M240 288c0-8.8 7.2-16 16-16s16 7.2 16 16v128c0 8.8-7.2 16-16 16s-16-7.2-16-16V288z"/>
  <path d="M304 288c0-8.8 7.2-16 16-16s16 7.2 16 16v128c0 8.8-7.2 16-16 16s-16-7.2-16-16V288z"/>
  <path d="M192 96h128v32H192V96z"/>
  <path d="M96 128h320v32H96V128z"/>
  <path d="M112 160h288v32H112V160z"/>
  <path d="M112 192h288v32H112V192z"/>
  <path d="M112 224h288v32H112V224z"/>
  <path d="M112 256h288v32H112V256z"/>
  <path d="M112 288h288v32H112V288z"/>
  <path d="M112 320h288v32H112V320z"/>
  <path d="M112 352h288v32H112V352z"/>
  <path d="M112 384h288v32H112V384z"/>
  <path d="M112 416h288v32H112V416z"/>
</svg>
