<svg xmlns="http://www.w3.org/2000/svg" id="Outline" viewBox="0 0 512 512" width="512" height="512" fill="currentColor" stroke="currentColor">
  <path d="M64 0C28.7 0 0 28.7 0 64v384c0 35.3 28.7 64 64 64h384c35.3 0 64-28.7 64-64V160H336c-17.7 0-32-14.3-32-32V0H64zM320 0v128h128L320 0z"/>
  <path d="M96 192c0-8.8 7.2-16 16-16h288c8.8 0 16 7.2 16 16s-7.2 16-16 16H112c-8.8 0-16-7.2-16-16z"/>
  <path d="M96 256c0-8.8 7.2-16 16-16h288c8.8 0 16 7.2 16 16s-7.2 16-16 16H112c-8.8 0-16-7.2-16-16z"/>
  <path d="M96 320c0-8.8 7.2-16 16-16h288c8.8 0 16 7.2 16 16s-7.2 16-16 16H112c-8.8 0-16-7.2-16-16z"/>
  <path d="M96 384c0-8.8 7.2-16 16-16h192c8.8 0 16 7.2 16 16s-7.2 16-16 16H112c-8.8 0-16-7.2-16-16z"/>
  <path d="M64 32h224v96h96v320H64V32z"/>
  <path d="M288 128h96L288 32v96z"/>
  <path d="M112 176h288v16H112V176z"/>
  <path d="M112 240h288v16H112V240z"/>
  <path d="M112 304h288v16H112V304z"/>
  <path d="M112 368h192v16H112V368z"/>
  <path d="M64 48h224v16H64V48z"/>
  <path d="M64 64h224v16H64V64z"/>
  <path d="M64 80h224v16H64V80z"/>
  <path d="M64 96h224v16H64V96z"/>
  <path d="M64 112h224v16H64V112z"/>
  <path d="M64 128h224v16H64V128z"/>
  <path d="M64 144h224v16H64V144z"/>
  <path d="M64 160h224v16H64V160z"/>
  <path d="M64 176h224v16H64V176z"/>
  <path d="M64 192h224v16H64V192z"/>
  <path d="M64 208h224v16H64V208z"/>
  <path d="M64 224h224v16H64V224z"/>
  <path d="M64 240h224v16H64V240z"/>
  <path d="M64 256h224v16H64V256z"/>
  <path d="M64 272h224v16H64V272z"/>
  <path d="M64 288h224v16H64V288z"/>
  <path d="M64 304h224v16H64V304z"/>
  <path d="M64 320h224v16H64V320z"/>
  <path d="M64 336h224v16H64V336z"/>
  <path d="M64 352h224v16H64V352z"/>
  <path d="M64 368h224v16H64V368z"/>
  <path d="M64 384h224v16H64V384z"/>
  <path d="M64 400h224v16H64V400z"/>
  <path d="M64 416h224v16H64V416z"/>
  <path d="M64 432h224v16H64V432z"/>
  <path d="M64 448h224v16H64V448z"/>
</svg>
