<svg xmlns="http://www.w3.org/2000/svg" id="Icons" viewBox="0 0 74 74" width="512" height="512" fill="currentColor" stroke="currentColor"><path d="M36.22,58.5h-2.9a1,1,0,1,1,0-2h2.9a1,1,0,0,1,0,2Z"/><path d="M70,58.5H53.19a1,1,0,0,1,0-2H70v-39H4v39H26.32a1,1,0,0,1,0,2H4a2,2,0,0,1-2-2v-39a2,2,0,0,1,2-2H70a2,2,0,0,1,2,2v39A2,2,0,0,1,70,58.5Z"/><path d="M46.19,58.5H43.22a1,1,0,0,1,0-2h2.97a1,1,0,0,1,0,2Z"/><path d="M58.47,53.5H15.53a1,1,0,0,1-1-1A6.537,6.537,0,0,0,8,45.97a1,1,0,0,1-1-1V29.03a1,1,0,0,1,1-1,6.537,6.537,0,0,0,6.53-6.53,1,1,0,0,1,1-1H58.47a1,1,0,0,1,1,1A6.537,6.537,0,0,0,66,28.03a1,1,0,0,1,1,1V44.97a1,1,0,0,1-1,1,6.537,6.537,0,0,0-6.53,6.53A1,1,0,0,1,58.47,53.5Zm-42-2H57.528A8.547,8.547,0,0,1,65,44.028V29.972A8.547,8.547,0,0,1,57.528,22.5H16.472A8.547,8.547,0,0,1,9,29.972V44.028A8.547,8.547,0,0,1,16.472,51.5Z"/><path d="M32.221,53.5a1,1,0,0,1-.763-.353C28.708,49.905,27,43.718,27,37s1.708-12.9,4.458-16.147a1,1,0,1,1,1.525,1.294C30.526,25.043,29,30.735,29,37s1.526,11.957,3.983,14.853a1,1,0,0,1-.762,1.647Z"/><path d="M41.779,53.5a1,1,0,0,1-.762-1.647C43.474,48.957,45,43.265,45,37s-1.526-11.957-3.983-14.853a1,1,0,1,1,1.525-1.294C45.292,24.1,47,30.282,47,37s-1.708,12.905-4.458,16.147A1,1,0,0,1,41.779,53.5Z"/><path d="M37,38a4,4,0,1,1,4-4,1,1,0,0,1-2,0,2,2,0,1,0-2,2,1,1,0,0,1,0,2Z"/><path d="M37,44a4,4,0,0,1-4-4,1,1,0,0,1,2,0,2,2,0,1,0,2-2,1,1,0,0,1,0-2,4,4,0,0,1,0,8Z"/><path d="M37.005,45.521a1,1,0,0,1-1-1V43.005a1,1,0,0,1,2,0v1.516A1,1,0,0,1,37.005,45.521Z"/><path d="M37.005,32.005a1,1,0,0,1-1-1V29.479a1,1,0,0,1,2,0v1.526A1,1,0,0,1,37.005,32.005Z"/><path d="M55.625,40.812A3.812,3.812,0,1,1,59.438,37,3.817,3.817,0,0,1,55.625,40.812Zm0-5.624A1.812,1.812,0,1,0,57.438,37,1.814,1.814,0,0,0,55.625,35.188Z"/><path d="M18.385,40.812A3.812,3.812,0,1,1,22.2,37,3.817,3.817,0,0,1,18.385,40.812Zm0-5.624A1.812,1.812,0,1,0,20.2,37,1.814,1.814,0,0,0,18.385,35.188Z"/></svg>
