<svg id="Icons" height="512" viewBox="0 0 74 74" width="512" xmlns="http://www.w3.org/2000/svg" fill="currentColor" stroke="currentColor"><path d="m54.771 46.207a1 1 0 0 1 -.81-.413 6.635 6.635 0 0 0 -4.061-2.379l-7.7-1.338a6.766 6.766 0 0 1 -1.452-.424 6.272 6.272 0 0 1 -2.691-2.044 9.607 9.607 0 0 1 -1.913-5.4l1-.074 1 .012a7.619 7.619 0 0 0 1.5 4.242 4.308 4.308 0 0 0 1.856 1.411 4.8 4.8 0 0 0 1.039.307l7.757 1.35a8.6 8.6 0 0 1 5.284 3.163 1 1 0 0 1 -.809 1.587z"/><path d="m6.439 50.468a1 1 0 0 1 -.986-.844c-.01-.065-.929-6.48 6.515-8.16l7.792-1.364a4.581 4.581 0 0 0 2.9-1.7 7.769 7.769 0 0 0 1.506-4.328 1 1 0 0 1 2 .125 9.722 9.722 0 0 1 -1.908 5.41 6.556 6.556 0 0 1 -4.145 2.458l-7.749 1.352c-5.59 1.263-4.96 5.7-4.93 5.888a1 1 0 0 1 -.834 1.151 1.047 1.047 0 0 1 -.161.012z"/><path d="m21.47 62.62h-2.91a1 1 0 1 1 0-2h2.91a1 1 0 1 1 0 2z"/><path d="m42.3 62.62h-3.86a1 1 0 0 1 0-2h3.85a1 1 0 0 1 .01 2z"/><path d="m31.44 62.62h-2.97a1 1 0 0 1 0-2h2.97a1 1 0 0 1 0 2z"/><path d="m11.56 62.62h-5.12a1 1 0 0 1 -1-1v-12.15a1 1 0 0 1 2 0v11.15h4.12a1 1 0 0 1 0 2z"/><path d="m31.1 51.485a.994.994 0 0 1 -.448-.106l-9.935-4.979a1 1 0 0 1 -.552-.894v-4.763a1 1 0 0 1 2 0v4.147l8.94 4.478 9.035-4.48v-4.165a1 1 0 0 1 2 0v4.785a1 1 0 0 1 -.556.9l-10.037 4.973a1 1 0 0 1 -.447.104z"/><path d="m46.484 42.805a1 1 0 0 1 -.985-1.178c.059-.327 5.73-32.735-10.717-37.247a10.724 10.724 0 0 0 -7.018.478c-4.3 1.839-9.59 6.281-10.367 17l-.014.187c-.054.756-.109 1.51-.207 2.263-.317 2.446-1.218 10.909.512 17.07a1 1 0 0 1 -1.926.54c-1.782-6.347-.991-14.61-.569-17.867.093-.715.143-1.431.2-2.15l.013-.188c.894-12.342 7.633-17.013 11.572-18.693a12.722 12.722 0 0 1 8.334-.568c7.612 2.088 12.116 9.657 13.024 21.888a78.092 78.092 0 0 1 -.869 17.644 1 1 0 0 1 -.983.821z"/><path d="m31.157 38.008h-.054a10.6 10.6 0 0 1 -6.618-3.128 19.9 19.9 0 0 1 -3.56-4.514 19.537 19.537 0 0 1 -1.767-5.711 1 1 0 0 1 .142-.667c5.967-9.556 18.926-12.788 19.475-12.926a1 1 0 0 1 1 .326 17.818 17.818 0 0 1 1.631 18.928c-.008.016-.015.031-.023.046a19.7 19.7 0 0 1 -3.55 4.514 10.655 10.655 0 0 1 -6.621 3.13zm-8.45-8.55a18.3 18.3 0 0 0 3.142 3.957 8.708 8.708 0 0 0 5.308 2.591 8.762 8.762 0 0 0 5.313-2.595 17.839 17.839 0 0 0 3.141-3.98 16.124 16.124 0 0 0 -.995-16.252c-2.595.757-12.533 4.065-17.423 11.559a17.745 17.745 0 0 0 1.514 4.72z"/><path d="m54.7 72a13.9 13.9 0 1 1 13.9-13.9 13.912 13.912 0 0 1 -13.9 13.9zm0-25.793a11.9 11.9 0 1 0 11.9 11.893 11.91 11.91 0 0 0 -11.9-11.893z"/><path d="m54.7 59.109a3.853 3.853 0 1 1 3.681-4.986 1 1 0 1 1 -1.911.591 1.852 1.852 0 1 0 -1.77 2.4 1 1 0 0 1 0 2z"/><path d="m54.7 64.8a3.837 3.837 0 0 1 -3.606-2.488 1 1 0 1 1 1.868-.714 1.852 1.852 0 1 0 1.738-2.489 1 1 0 0 1 0-2 3.847 3.847 0 1 1 0 7.694z"/><path d="m54.7 66.149a1 1 0 0 1 -1-1v-1.349a1 1 0 0 1 2 0v1.346a1 1 0 0 1 -1 1.003z"/><path d="m54.7 53.4a1 1 0 0 1 -1-1v-1.343a1 1 0 0 1 2 0v1.343a1 1 0 0 1 -1 1z"/></svg>
