<svg xmlns="http://www.w3.org/2000/svg" id="Outline" viewBox="0 0 512 512" width="512" height="512" fill="currentColor" stroke="currentColor"><path d="M496,56a8,8,0,0,0-8-8H288V24a8,8,0,0,0-13.657-5.657C261.592,31.1,237.6,40,216,40H136A40.045,40.045,0,0,0,96,80v8a8,8,0,0,0,.411,2.53L112.035,137.4c.363,21.06,8.882,46.21,22.452,66.03A115.486,115.486,0,0,0,144,215.567V232h-8a8,8,0,0,0-6.656,3.562l-16,24a8,8,0,0,0,1,10.095l4.847,4.847L53.47,296.41a8,8,0,0,0-5.116,5.237l-32,104A8,8,0,0,0,24,416H242.094a127.761,127.761,0,0,0,123.911-.055l73.024,73.024a24,24,0,1,0,33.941-33.941l-69.977-69.976A128.139,128.139,0,0,0,422.652,352H488a8,8,0,0,0,8-8ZM112,80a24.028,24.028,0,0,1,24-24h80c16.765,0,38.573-4.926,56-15.673V86.7l-8.683,26.049-7.889-19.722A8,8,0,0,0,248,88H136a8,8,0,0,0-7.428,5.029l-7.889,19.722L112,86.7Zm16.037,57.449L141.417,104H242.583l13.378,33.443c-.4,18.649-8.5,41.4-20.962,58.79a128.993,128.993,0,0,0-28.207,24.59A37.52,37.52,0,0,1,192,224c-15.277,0-31.427-10.792-44.311-29.608C135.861,177.117,128.418,155.454,128.037,137.449Zm54.122,127.317L160,251.471V229.609C170.162,236.417,181.009,240,192,240c.4,0,.8-.026,1.2-.036A127.352,127.352,0,0,0,182.159,264.766ZM140.281,248H144v8a8,8,0,0,0,3.884,6.86l30.2,18.117q-.489,2.679-.86,5.4L167.134,299.82l-36.84-36.84ZM96,344a8,8,0,0,0-8,8v48H34.832l27.6-89.713,69.4-23.134,29.586,29.586,6.028,12.055L152.308,381.8A8.013,8.013,0,0,0,152,384v16H104V352A8,8,0,0,0,96,344Zm72,56V385.12l13.024-45.582A128.259,128.259,0,0,0,219.436,400Zm296,72a8,8,0,0,1-13.657,5.656l-70.565-70.564a129.052,129.052,0,0,0,12.314-10.312l69.565,69.564A7.945,7.945,0,0,1,464,472ZM304,416A112,112,0,1,1,416,304,112.127,112.127,0,0,1,304,416Zm176-80H427.95a127.474,127.474,0,0,0,3.793-24H456a8,8,0,0,0,0-16H431.743a127.474,127.474,0,0,0-3.793-24H456a8,8,0,0,0,0-16H422.652a127.823,127.823,0,0,0-12.878-24H456a8,8,0,0,0,0-16H396.864a128.808,128.808,0,0,0-30.958-24H456a8,8,0,0,0,0-16H304a127.406,127.406,0,0,0-43.31,7.548A132.456,132.456,0,0,0,268.906,160H360a8,8,0,0,0,0-16H271.615c.2-2.23.313-4.427.349-6.594L275.1,128H360a8,8,0,0,0,0-16H280.433l5.333-16H360a8,8,0,0,0,0-16H288V64H480Z"/><circle cx="168" cy="136" r="8"/><circle cx="216" cy="136" r="8"/><path d="M163.562,182.656a51.131,51.131,0,0,0,56.876,0,8,8,0,0,0-8.876-13.312,35.174,35.174,0,0,1-39.124,0,8,8,0,1,0-8.876,13.312Z"/><path d="M304,208a96,96,0,1,0,96,96A96.108,96.108,0,0,0,304,208Zm0,176a80,80,0,1,1,80-80A80.091,80.091,0,0,1,304,384Z"/><path d="M304,352a48.054,48.054,0,0,1-48-48,8,8,0,0,0-16,0,64.072,64.072,0,0,0,64,64,8,8,0,0,0,0-16Z"/><path d="M338.343,266.343,296,308.687l-10.343-10.344a8,8,0,0,0-11.314,11.314l16,16a8,8,0,0,0,11.314,0l48-48a8,8,0,0,0-11.314-11.314Z"/><path d="M392,160h64a8,8,0,0,0,8-8V88a8,8,0,0,0-8-8H392a8,8,0,0,0-8,8v64A8,8,0,0,0,392,160Zm8-64h48v48H400Z"/></svg>
