<svg xmlns="http://www.w3.org/2000/svg" id="Outline" viewBox="0 0 512 512" width="512" height="512" fill="currentColor" stroke="currentColor"><path d="M488,16H136a8,8,0,0,0-8,8V196.735a63.983,63.983,0,1,0-64,104.24V320H40a8,8,0,0,0-8,8v32a8,8,0,0,0,8,8h8v16H40a8,8,0,0,0-8,8v32a8,8,0,0,0,8,8v16a8,8,0,0,0-8,8v32a8,8,0,0,0,8,8H488a8,8,0,0,0,8-8V24A8,8,0,0,0,488,16ZM32,239a48,48,0,1,1,48,48A48.053,48.053,0,0,1,32,239Zm89.111,49A64.527,64.527,0,0,0,128,281.265V288ZM80,304h80v16H80Zm144,48H144V336h80ZM48,336h80v16H48Zm16,32H240v16H186.265a63.823,63.823,0,0,0-84.53,0H64Zm144,64h24v16H205.975A63.921,63.921,0,0,0,208,432Zm-2.025-16a63.614,63.614,0,0,0-6.585-16H224v16ZM144,480a48,48,0,1,1,48-48A48.053,48.053,0,0,1,144,480ZM48,400H88.61a63.614,63.614,0,0,0-6.585,16H48Zm8,32H80a63.921,63.921,0,0,0,2.025,16H56Zm-8,32H88.61a64.455,64.455,0,0,0,13.125,16H48Zm138.265,16A64.4,64.4,0,0,0,200,462.94V464h24v16ZM480,480H240V464a8,8,0,0,0,8-8V443.314L275.313,416H288a8,8,0,0,0,5-1.753l36.6-29.281,19.871,6.624a8.009,8.009,0,0,0,7.912-1.67L440,314.812V336a8,8,0,0,0,16,0V296a8,8,0,0,0-8-8H408a8,8,0,0,0,0,16h20.106l-78.021,70.929L330.53,368.41A8,8,0,0,0,323,369.753L285.193,400H272a8,8,0,0,0-5.657,2.343L247.486,421.2A8,8,0,0,0,240,416V400h8a8,8,0,0,0,8-8V360a8,8,0,0,0-8-8h-8V328a8,8,0,0,0-8-8H176V296a8,8,0,0,0-8-8H144V32H480Z"/><path d="M168,112H456a8,8,0,0,0,8-8V56a8,8,0,0,0-8-8H168a8,8,0,0,0-8,8v48A8,8,0,0,0,168,112Zm8-48H448V96H176Z"/><path d="M248,128a64,64,0,1,0,64,64A64.072,64.072,0,0,0,248,128Zm48,63.889-40-6.667V144.679A48.067,48.067,0,0,1,296,191.889Zm-56-47.21v30.676l-23.937-19.149A47.862,47.862,0,0,1,240,144.679ZM248,240a47.971,47.971,0,0,1-41.941-71.308L243,198.247a7.984,7.984,0,0,0,3.682,1.643v0l46.674,7.779A48.072,48.072,0,0,1,248,240Z"/><path d="M456,144H336a8,8,0,0,0,0,16H456a8,8,0,0,0,0-16Z"/><path d="M456,176H336a8,8,0,0,0,0,16H456a8,8,0,0,0,0-16Z"/><path d="M456,208H336a8,8,0,0,0,0,16H456a8,8,0,0,0,0-16Z"/><path d="M456,240H336a8,8,0,0,0,0,16H456a8,8,0,0,0,0-16Z"/><path d="M88,263v-2.165A15.986,15.986,0,0,0,80,231h8a8,8,0,0,0,0-16,8,8,0,0,0-16,0v2.165A15.986,15.986,0,0,0,80,247H72a8,8,0,0,0,0,16,8,8,0,0,0,16,0Z"/><path d="M160,416a8,8,0,0,0-8-8,8,8,0,0,0-16,0v2.165A15.986,15.986,0,0,0,144,440h-8a8,8,0,0,0,0,16,8,8,0,0,0,16,0v-2.165A15.986,15.986,0,0,0,144,424h8A8,8,0,0,0,160,416Z"/></svg>
