<?xml version="1.0" encoding="UTF-8"?>
<svg xmlns="http://www.w3.org/2000/svg" id="Outline" viewBox="0 0 512 512" width="512" height="512"><path d="M416,216A80,80,0,1,0,399.993,57.609a80.013,80.013,0,0,0-94.7,64.153A159.768,159.768,0,0,0,232,104c-88.224,0-160,71.775-160,160s71.776,160,160,160,160-71.775,160-160a159.538,159.538,0,0,0-7.333-48.017,80.021,80.021,0,0,0,15.318-1.59A80.586,80.586,0,0,0,416,216Zm64-80a64.1,64.1,0,0,1-44.119,60.823,79.841,79.841,0,0,0,0-121.646A64.1,64.1,0,0,1,480,136ZM384,72a64,64,0,1,1-64,64A64.072,64.072,0,0,1,384,72ZM311.878,256c-1.523-55.576-18.7-92.817-33.225-114.567a157.872,157.872,0,0,0-13.589-17.587,143.173,143.173,0,0,1,39.02,15.479A80.135,80.135,0,0,0,367.158,214.2a142.93,142.93,0,0,1,8.616,41.8ZM224,121.927V256H168.127c1.481-51.035,16.93-85.053,30-104.894C208.243,135.757,218.453,126.385,224,121.927ZM224,272V405.925a134.978,134.978,0,0,1-25.818-29.711C175.365,341.263,169.041,301.557,168.127,272Zm16,133.927V272h55.869c-1.508,50.127-16.968,84.173-30.051,104.214A135.026,135.026,0,0,1,240,405.927ZM240,256V121.927c5.547,4.458,15.757,13.83,25.87,29.179,22.813,34.625,29.11,74.833,30.007,104.894ZM198.947,123.834a157.713,157.713,0,0,0-13.6,17.6c-14.525,21.75-31.7,58.991-33.225,114.567h-63.9C91.774,191.524,137.93,138.22,198.947,123.834ZM88.226,272h63.9c1.548,54.593,18.7,91.841,33.2,113.786A164.457,164.457,0,0,0,199.511,404.3C138.214,390.116,91.785,336.675,88.226,272ZM264.489,404.3a164.457,164.457,0,0,0,14.185-18.518c14.5-21.945,31.653-59.193,33.2-113.786h63.9C372.215,336.675,325.786,390.116,264.489,404.3Z"/><path d="M232,480A216,216,0,0,0,448,264a8,8,0,0,0-16,0c0,110.28-89.72,200-200,200S32,374.28,32,264C32,160.437,111.125,75.011,212.1,64.989l-.533.355a8,8,0,1,0,8.876,13.312l24-16a8,8,0,0,0,0-13.312l-24-16a8,8,0,0,0-8.876,13.312l3.06,2.04A216,216,0,0,0,79.265,416.735,214.585,214.585,0,0,0,232,480Z"/><path d="M384,160H368a8,8,0,0,0,0,16h8a8,8,0,0,0,16,0v-1.376A24,24,0,0,0,384,128a8,8,0,0,1,0-16h16a8,8,0,0,0,0-16h-8a8,8,0,0,0-16,0v1.376A24,24,0,0,0,384,144a8,8,0,0,1,0,16Z"/></svg>
