<svg xmlns="http://www.w3.org/2000/svg" id="Icons" viewBox="0 0 74 74" width="512" height="512" fill="currentColor" stroke="currentColor"><path d="M3,30a1,1,0,0,1-.607-1.794l11-8.411a1,1,0,0,1,1.214,1.589l-11,8.41A.994.994,0,0,1,3,30Z"/><path d="M71,72H49.44a1,1,0,0,1,0-2H70V29a1,1,0,0,1,2,0V71A1,1,0,0,1,71,72Z"/><path d="M32.47,72H29.56a1,1,0,0,1,0-2h2.91a1,1,0,0,1,0,2Z"/><path d="M22.56,72H3a1,1,0,0,1-1-1V29a1,1,0,0,1,2,0V70H22.56a1,1,0,1,1,0,2Z"/><path d="M42.44,72H39.47a1,1,0,0,1,0-2h2.97a1,1,0,0,1,0,2Z"/><path d="M45.659,10.62a1,1,0,0,1-.606-.205L37,4.259l-8.053,6.156a1,1,0,0,1-1.215-1.589l8.661-6.62a1,1,0,0,1,1.214,0l8.661,6.62a1,1,0,0,1-.609,1.794Z"/><path d="M71,30a.994.994,0,0,1-.607-.206l-11-8.41A1,1,0,0,1,60.607,19.8l11,8.411A1,1,0,0,1,71,30Z"/><path d="M37,54.141a14,14,0,0,1-8.915-3.191L2.364,29.768a1,1,0,1,1,1.272-1.544L29.357,49.406a12.046,12.046,0,0,0,15.286,0L70.364,28.224a1,1,0,1,1,1.272,1.544L45.915,50.95A14,14,0,0,1,37,54.141Z"/><path d="M71,72a1,1,0,0,1-.636-.228l-25.5-21a1,1,0,1,1,1.272-1.544l25.5,21A1,1,0,0,1,71,72Z"/><path d="M3,72a1,1,0,0,1-.636-1.772l25.5-21a1,1,0,1,1,1.272,1.544l-25.5,21A1,1,0,0,1,3,72Z"/><path d="M60,39.06a1,1,0,0,1-1-1V10.625H15V38.06a1,1,0,0,1-2,0V9.625a1,1,0,0,1,1-1H60a1,1,0,0,1,1,1V38.06A1,1,0,0,1,60,39.06Z"/><path d="M37,27.948a4.777,4.777,0,1,1,4.777-4.777,1,1,0,0,1-2,0A2.777,2.777,0,1,0,37,25.948a1,1,0,0,1,0,2Z"/><path d="M37,35.5a4.782,4.782,0,0,1-4.777-4.777,1,1,0,0,1,2,0A2.777,2.777,0,1,0,37,27.948a1,1,0,0,1,0-2A4.777,4.777,0,1,1,37,35.5Z"/><path d="M37.006,37.417a1,1,0,0,1-1-1v-1.91a1,1,0,0,1,2,0v1.91A1,1,0,0,1,37.006,37.417Z"/><path d="M37.006,20.4a1,1,0,0,1-1-1V17.479a1,1,0,0,1,2,0V19.4A1,1,0,0,1,37.006,20.4Z"/></svg>
