<?xml version="1.0" encoding="UTF-8"?>
<svg xmlns="http://www.w3.org/2000/svg" id="Outline" viewBox="0 0 512 512" width="512" height="512" fill="currentColor" stroke="currentColor"><path d="M496,112a8,8,0,0,0-8-8H352V96a56.063,56.063,0,0,0-56-56H216a56.063,56.063,0,0,0-56,56v8H24a8,8,0,0,0-8,8V432a40.045,40.045,0,0,0,40,40H456a40.045,40.045,0,0,0,40-40ZM176,96a40.045,40.045,0,0,1,40-40h80a40.045,40.045,0,0,1,40,40v8H320V96a24.028,24.028,0,0,0-24-24H216a24.028,24.028,0,0,0-24,24v8H176Zm128,8H208V96a8.009,8.009,0,0,1,8-8h80a8.009,8.009,0,0,1,8,8Zm176,16v29.461L387.854,280H304V264a8,8,0,0,0-8-8H216a8,8,0,0,0-8,8v16H124.145L32,149.461V120ZM64,222.539l49.464,70.074A8,8,0,0,0,120,296h88v16a8,8,0,0,0,8,8h80a8,8,0,0,0,8-8V296h88a8,8,0,0,0,6.536-3.387L448,222.539V424H64ZM288,272v32H264V272Zm-40,32H224V272h24ZM456,456H56a24.028,24.028,0,0,1-24-24V177.205l16,22.667V432a8,8,0,0,0,8,8H456a8,8,0,0,0,8-8V199.873l16-22.667V432A24.028,24.028,0,0,1,456,456Z"/></svg>
