<svg xmlns="http://www.w3.org/2000/svg" id="Icons" viewBox="0 0 74 74" width="512" height="512" fill="currentColor" stroke="currentColor"><path d="M33.47,59.08H30.56a1,1,0,0,1,0-2h2.91a1,1,0,0,1,0,2Z"/><path d="M52.38,59.08H50.44a1,1,0,0,1,0-2h.94V50.04a7.284,7.284,0,0,0-.985-3.707,7.492,7.492,0,0,0-6.267-3.741,14.87,14.87,0,0,1-14.246,0,7.514,7.514,0,0,0-6.276,3.736,7.294,7.294,0,0,0-.986,3.71v7.04h.94a1,1,0,1,1,0,2H21.62a1,1,0,0,1-1-1V50.04a9.388,9.388,0,0,1,1.255-4.712,9.491,9.491,0,0,1,8.2-4.738,1.3,1.3,0,0,1,.6.147,12.82,12.82,0,0,0,12.668,0,1,1,0,0,1,.52-.145,9.52,9.52,0,0,1,8.266,4.74,9.385,9.385,0,0,1,1.254,4.71v8.04A1,1,0,0,1,52.38,59.08Z"/><path d="M43.44,59.08H40.47a1,1,0,0,1,0-2h2.97a1,1,0,0,1,0,2Z"/><path d="M71,59.08H50.44a1,1,0,0,1,0-2H70V51.87a5.543,5.543,0,0,0-5.323-5.536A11.217,11.217,0,0,1,59.11,47.75a11.1,11.1,0,0,1-5.556-1.415,5.5,5.5,0,0,0-1.91.418,1,1,0,1,1-.769-1.846,7.447,7.447,0,0,1,2.875-.577,1.266,1.266,0,0,1,.6.149,9.867,9.867,0,0,0,9.543,0,1,1,0,0,1,.521-.147A7.556,7.556,0,0,1,72,51.87v6.21A1,1,0,0,1,71,59.08Z"/><path d="M23.56,59.08H3a1,1,0,0,1-1-1V51.87a7.543,7.543,0,0,1,7.53-7.54,1.249,1.249,0,0,1,.6.151,9.867,9.867,0,0,0,9.54,0,1,1,0,0,1,.522-.147,7.524,7.524,0,0,1,2.935.577,1,1,0,1,1-.769,1.846,5.454,5.454,0,0,0-1.9-.419,11.958,11.958,0,0,1-11.122,0A5.553,5.553,0,0,0,4,51.87v5.21H23.56a1,1,0,1,1,0,2Z"/><path d="M37.154,38.739a9.676,9.676,0,0,1-8.934-13.4,1,1,0,1,1,1.847.766,7.68,7.68,0,1,0,14.767,2.968c0-.252,0-.5.01-.741.008-.372.015-.741,0-1.125a1,1,0,1,1,2-.068c.014.421.007.825,0,1.233-.005.231-.01.463-.01.7A9.686,9.686,0,0,1,37.154,38.739Z"/><path d="M45.846,28.168a1,1,0,0,1-.929-.627c-.357-.891-1.525-3.168-2.953-4.011-1.6,1.175-6.711,4.523-11.681,3.555-2.807-.548-5.068-2.359-6.719-5.382a1,1,0,0,1,1.182-1.432,5.326,5.326,0,0,0,5.233-1.9c.2-.2,3.982-3.8,8.136-3.421a6.8,6.8,0,0,1,4.761,2.706A5.061,5.061,0,0,1,47,19.326c1.35,1.709,1.274,4.472-.226,8.215a1,1,0,0,1-.928.627Zm-19.468-5.8a7.141,7.141,0,0,0,4.289,2.758c4.958.974,10.479-3.48,10.534-3.525a1,1,0,0,1,.96-.171,7.439,7.439,0,0,1,3.488,3.2c.486-1.863.417-3.243-.213-4.048-.908-1.159-2.864-.9-2.884-.9a1,1,0,0,1-.955-.406,5.008,5.008,0,0,0-3.662-2.333c-3.241-.293-6.5,2.8-6.53,2.829A7.656,7.656,0,0,1,26.378,22.364Z"/><path d="M59.23,42.647a7.7,7.7,0,0,1-7.114-10.672,1,1,0,1,1,1.847.765,5.708,5.708,0,1,0,10.975,2.207c0-.2,0-.387.008-.577.006-.284.012-.564,0-.857a1,1,0,0,1,.965-1.034.979.979,0,0,1,1.034.965c.011.33,0,.646,0,.966,0,.176-.008.355-.008.537A7.713,7.713,0,0,1,59.23,42.647Z"/><path d="M65.947,34.478a1,1,0,0,1-.928-.627,7.51,7.51,0,0,0-2.063-2.91c-1.385.994-5.271,3.439-9.08,2.7a7.778,7.778,0,0,1-5.348-4.274,1,1,0,0,1,1.182-1.432,3.9,3.9,0,0,0,3.808-1.41c.167-.162,3.166-3.021,6.476-2.715A5.444,5.444,0,0,1,63.76,25.9h0a4.092,4.092,0,0,1,3.255,1.38c1.1,1.389,1.05,3.6-.142,6.574a1,1,0,0,1-.927.627ZM51.337,29.94a5.112,5.112,0,0,0,2.923,1.734c3.734.728,7.913-2.643,7.954-2.677a1,1,0,0,1,.96-.171,5.513,5.513,0,0,1,2.516,2.12,3.052,3.052,0,0,0-.237-2.423c-.609-.779-2.006-.61-2.02-.609a1.014,1.014,0,0,1-.954-.406,3.658,3.658,0,0,0-2.666-1.71c-2-.179-4.19,1.472-4.868,2.124A6.2,6.2,0,0,1,51.337,29.94Z"/><path d="M15.008,42.647A7.7,7.7,0,0,1,7.894,31.975a1,1,0,0,1,1.847.765,5.708,5.708,0,1,0,10.975,2.207c0-.2,0-.387.008-.577,0-.284.012-.564,0-.857a1,1,0,0,1,.965-1.034.986.986,0,0,1,1.034.965c.011.33,0,.646,0,.966,0,.176-.008.355-.008.537A7.713,7.713,0,0,1,15.008,42.647Z"/><path d="M21.725,34.478a1,1,0,0,1-.928-.627,7.5,7.5,0,0,0-2.063-2.91c-1.385.994-5.277,3.437-9.079,2.7a7.775,7.775,0,0,1-5.349-4.274,1,1,0,0,1,1.182-1.432A3.9,3.9,0,0,0,9.3,26.521c.166-.162,3.169-3.021,6.475-2.715A5.444,5.444,0,0,1,19.538,25.9h0a4.092,4.092,0,0,1,3.255,1.38c1.1,1.389,1.05,3.6-.142,6.574a1,1,0,0,1-.927.627ZM7.115,29.94a5.115,5.115,0,0,0,2.923,1.734C13.772,32.4,17.95,29.03,17.992,29a1,1,0,0,1,.96-.171,5.517,5.517,0,0,1,2.516,2.119,3.054,3.054,0,0,0-.237-2.422c-.608-.779-2.006-.61-2.021-.609a1.015,1.015,0,0,1-.953-.406,3.658,3.658,0,0,0-2.666-1.71c-1.99-.179-4.191,1.472-4.868,2.124A6.2,6.2,0,0,1,7.115,29.94Z"/></svg>
